<?xml version="1.0" encoding="UTF-8" standalone="no"?>
<!DOCTYPE svg PUBLIC "-//W3C//DTD SVG 1.1//EN"
 "http://www.w3.org/Graphics/SVG/1.1/DTD/svg11.dtd">
<!-- Generated by graphviz version 2.40.1 (20161225.0304)
 -->
<!-- Title: QA database Pages: 1 -->
<svg width="790pt" height="286pt"
 viewBox="0.00 0.00 790.00 286.00" xmlns="http://www.w3.org/2000/svg" xmlns:xlink="http://www.w3.org/1999/xlink">
<g id="graph0" class="graph" transform="scale(1 1) rotate(0) translate(4 282)">
<title>QA database</title>
<polygon fill="#f7f8f9" stroke="transparent" points="-4,4 -4,-282 786,-282 786,4 -4,4"/>
<!-- 4334 -->
<g id="node1" class="node">
<title>4334</title>
<g id="a_node1"><a xlink:href="javascript:window.parent.edit_table('/projects/231/tables/4334/edit');" xlink:title="&lt;TABLE&gt;">
<polygon fill="#ececfc" stroke="transparent" points="488.5,-242.5 488.5,-263.5 708.5,-263.5 708.5,-242.5 488.5,-242.5"/>
<polygon fill="none" stroke="#000000" points="488.5,-242.5 488.5,-263.5 708.5,-263.5 708.5,-242.5 488.5,-242.5"/>
<text text-anchor="start" x="575.5" y="-250.3" font-family="Times,serif" font-weight="bold" font-size="14.00" fill="#000000">Items</text>
<polygon fill="#01f800" stroke="transparent" points="488.5,-221.5 488.5,-242.5 546.5,-242.5 546.5,-221.5 488.5,-221.5"/>
<polygon fill="none" stroke="#000000" points="488.5,-221.5 488.5,-242.5 546.5,-242.5 546.5,-221.5 488.5,-221.5"/>
<text text-anchor="start" x="491.5" y="-228.3" font-family="Times,serif" font-size="14.00" fill="#000000">ItemID</text>
<polygon fill="#01f800" stroke="transparent" points="546.5,-221.5 546.5,-242.5 609.5,-242.5 609.5,-221.5 546.5,-221.5"/>
<polygon fill="none" stroke="#000000" points="546.5,-221.5 546.5,-242.5 609.5,-242.5 609.5,-221.5 546.5,-221.5"/>
<text text-anchor="start" x="549.5" y="-228.3" font-family="Times,serif" font-size="14.00" fill="#000000">int</text>
<polygon fill="#01f800" stroke="transparent" points="609.5,-221.5 609.5,-242.5 708.5,-242.5 708.5,-221.5 609.5,-221.5"/>
<polygon fill="none" stroke="#000000" points="609.5,-221.5 609.5,-242.5 708.5,-242.5 708.5,-221.5 609.5,-221.5"/>
<text text-anchor="start" x="612.5" y="-228.3" font-family="Times,serif" font-size="14.00" fill="#000000">[pk, not null]</text>
<polygon fill="#01f800" stroke="transparent" points="488.5,-200.5 488.5,-221.5 546.5,-221.5 546.5,-200.5 488.5,-200.5"/>
<polygon fill="none" stroke="#000000" points="488.5,-200.5 488.5,-221.5 546.5,-221.5 546.5,-200.5 488.5,-200.5"/>
<text text-anchor="start" x="491.5" y="-207.3" font-family="Times,serif" font-size="14.00" fill="#000000">Name</text>
<polygon fill="#01f800" stroke="transparent" points="546.5,-200.5 546.5,-221.5 609.5,-221.5 609.5,-200.5 546.5,-200.5"/>
<polygon fill="none" stroke="#000000" points="546.5,-200.5 546.5,-221.5 609.5,-221.5 609.5,-200.5 546.5,-200.5"/>
<text text-anchor="start" x="549.5" y="-207.3" font-family="Times,serif" font-size="14.00" fill="#000000">int</text>
<polygon fill="#01f800" stroke="transparent" points="609.5,-200.5 609.5,-221.5 708.5,-221.5 708.5,-200.5 609.5,-200.5"/>
<polygon fill="none" stroke="#000000" points="609.5,-200.5 609.5,-221.5 708.5,-221.5 708.5,-200.5 609.5,-200.5"/>
<text text-anchor="start" x="639.5" y="-207.3" font-family="Times,serif" font-size="14.00" fill="#000000">[not null]</text>
<polygon fill="#01f800" stroke="transparent" points="488.5,-179.5 488.5,-200.5 546.5,-200.5 546.5,-179.5 488.5,-179.5"/>
<polygon fill="none" stroke="#000000" points="488.5,-179.5 488.5,-200.5 546.5,-200.5 546.5,-179.5 488.5,-179.5"/>
<text text-anchor="start" x="491.5" y="-186.3" font-family="Times,serif" font-size="14.00" fill="#000000">Price</text>
<polygon fill="#01f800" stroke="transparent" points="546.5,-179.5 546.5,-200.5 609.5,-200.5 609.5,-179.5 546.5,-179.5"/>
<polygon fill="none" stroke="#000000" points="546.5,-179.5 546.5,-200.5 609.5,-200.5 609.5,-179.5 546.5,-179.5"/>
<text text-anchor="start" x="549.5" y="-186.3" font-family="Times,serif" font-size="14.00" fill="#000000">decimal</text>
<polygon fill="#01f800" stroke="transparent" points="609.5,-179.5 609.5,-200.5 708.5,-200.5 708.5,-179.5 609.5,-179.5"/>
<polygon fill="none" stroke="#000000" points="609.5,-179.5 609.5,-200.5 708.5,-200.5 708.5,-179.5 609.5,-179.5"/>
<text text-anchor="start" x="639.5" y="-186.3" font-family="Times,serif" font-size="14.00" fill="#000000">[not null]</text>
</a>
</g>
</g>
<!-- 4333 -->
<g id="node2" class="node">
<title>4333</title>
<g id="a_node2"><a xlink:href="javascript:window.parent.edit_table('/projects/231/tables/4333/edit');" xlink:title="&lt;TABLE&gt;">
<polygon fill="#ececfc" stroke="transparent" points="65.5,-252.5 65.5,-273.5 287.5,-273.5 287.5,-252.5 65.5,-252.5"/>
<polygon fill="none" stroke="#000000" points="65.5,-252.5 65.5,-273.5 287.5,-273.5 287.5,-252.5 65.5,-252.5"/>
<text text-anchor="start" x="107" y="-260.3" font-family="Times,serif" font-weight="bold" font-size="14.00" fill="#000000">Shopping basket </text>
<polygon fill="#01f800" stroke="transparent" points="65.5,-231.5 65.5,-252.5 153.5,-252.5 153.5,-231.5 65.5,-231.5"/>
<polygon fill="none" stroke="#000000" points="65.5,-231.5 65.5,-252.5 153.5,-252.5 153.5,-231.5 65.5,-231.5"/>
<text text-anchor="start" x="68.5" y="-238.3" font-family="Times,serif" font-size="14.00" fill="#000000">fk_ItemID</text>
<polygon fill="#01f800" stroke="transparent" points="153.5,-231.5 153.5,-252.5 215.5,-252.5 215.5,-231.5 153.5,-231.5"/>
<polygon fill="none" stroke="#000000" points="153.5,-231.5 153.5,-252.5 215.5,-252.5 215.5,-231.5 153.5,-231.5"/>
<text text-anchor="start" x="156.5" y="-238.3" font-family="Times,serif" font-size="14.00" fill="#000000">int</text>
<polygon fill="#01f800" stroke="transparent" points="215.5,-231.5 215.5,-252.5 287.5,-252.5 287.5,-231.5 215.5,-231.5"/>
<polygon fill="none" stroke="#000000" points="215.5,-231.5 215.5,-252.5 287.5,-252.5 287.5,-231.5 215.5,-231.5"/>
<text text-anchor="start" x="218.5" y="-238.3" font-family="Times,serif" font-size="14.00" fill="#000000">[not null]</text>
<polygon fill="#01f800" stroke="transparent" points="65.5,-210.5 65.5,-231.5 153.5,-231.5 153.5,-210.5 65.5,-210.5"/>
<polygon fill="none" stroke="#000000" points="65.5,-210.5 65.5,-231.5 153.5,-231.5 153.5,-210.5 65.5,-210.5"/>
<text text-anchor="start" x="68.5" y="-217.3" font-family="Times,serif" font-size="14.00" fill="#000000">fk_OrderID</text>
<polygon fill="#01f800" stroke="transparent" points="153.5,-210.5 153.5,-231.5 215.5,-231.5 215.5,-210.5 153.5,-210.5"/>
<polygon fill="none" stroke="#000000" points="153.5,-210.5 153.5,-231.5 215.5,-231.5 215.5,-210.5 153.5,-210.5"/>
<text text-anchor="start" x="156.5" y="-217.3" font-family="Times,serif" font-size="14.00" fill="#000000">varchar</text>
<polygon fill="#01f800" stroke="transparent" points="215.5,-210.5 215.5,-231.5 287.5,-231.5 287.5,-210.5 215.5,-210.5"/>
<polygon fill="none" stroke="#000000" points="215.5,-210.5 215.5,-231.5 287.5,-231.5 287.5,-210.5 215.5,-210.5"/>
<text text-anchor="start" x="218.5" y="-217.3" font-family="Times,serif" font-size="14.00" fill="#000000">[not null]</text>
<polygon fill="#01f800" stroke="transparent" points="65.5,-189.5 65.5,-210.5 153.5,-210.5 153.5,-189.5 65.5,-189.5"/>
<polygon fill="none" stroke="#000000" points="65.5,-189.5 65.5,-210.5 153.5,-210.5 153.5,-189.5 65.5,-189.5"/>
<text text-anchor="start" x="68.5" y="-196.3" font-family="Times,serif" font-size="14.00" fill="#000000">Quantity</text>
<polygon fill="#01f800" stroke="transparent" points="153.5,-189.5 153.5,-210.5 215.5,-210.5 215.5,-189.5 153.5,-189.5"/>
<polygon fill="none" stroke="#000000" points="153.5,-189.5 153.5,-210.5 215.5,-210.5 215.5,-189.5 153.5,-189.5"/>
<text text-anchor="start" x="156.5" y="-196.3" font-family="Times,serif" font-size="14.00" fill="#000000">int</text>
<polygon fill="#01f800" stroke="transparent" points="215.5,-189.5 215.5,-210.5 287.5,-210.5 287.5,-189.5 215.5,-189.5"/>
<polygon fill="none" stroke="#000000" points="215.5,-189.5 215.5,-210.5 287.5,-210.5 287.5,-189.5 215.5,-189.5"/>
<text text-anchor="start" x="218.5" y="-196.3" font-family="Times,serif" font-size="14.00" fill="#000000">[not null]</text>
<polygon fill="#01f800" stroke="transparent" points="65.5,-168.5 65.5,-189.5 153.5,-189.5 153.5,-168.5 65.5,-168.5"/>
<polygon fill="none" stroke="#000000" points="65.5,-168.5 65.5,-189.5 153.5,-189.5 153.5,-168.5 65.5,-168.5"/>
<text text-anchor="start" x="68.5" y="-175.3" font-family="Times,serif" font-size="14.00" fill="#000000">Entry</text>
<polygon fill="#01f800" stroke="transparent" points="153.5,-168.5 153.5,-189.5 215.5,-189.5 215.5,-168.5 153.5,-168.5"/>
<polygon fill="none" stroke="#000000" points="153.5,-168.5 153.5,-189.5 215.5,-189.5 215.5,-168.5 153.5,-168.5"/>
<text text-anchor="start" x="156.5" y="-175.3" font-family="Times,serif" font-size="14.00" fill="#000000">int</text>
<polygon fill="#01f800" stroke="transparent" points="215.5,-168.5 215.5,-189.5 287.5,-189.5 287.5,-168.5 215.5,-168.5"/>
<polygon fill="none" stroke="#000000" points="215.5,-168.5 215.5,-189.5 287.5,-189.5 287.5,-168.5 215.5,-168.5"/>
<text text-anchor="start" x="219.5" y="-175.3" font-family="Times,serif" font-size="14.00" fill="#000000">[pk, null]</text>
</a>
</g>
</g>
<!-- 4333&#45;&gt;4334 -->
<g id="edge1" class="edge">
<title>4333&#45;&gt;4334</title>
<g id="a_edge1"><a xlink:href="javascript:window.parent.edit_relationship('/projects/231/relationships/2767/edit');" xlink:title="one">
<path fill="none" stroke="#000000" d="M295.7361,-221.5C350.1157,-221.5 414.5945,-221.5 470.0444,-221.5"/>
<polygon fill="#000000" stroke="#000000" points="470.2886,-225.0001 480.2885,-221.5 470.2885,-218.0001 470.2886,-225.0001"/>
</a>
</g>
<g id="a_edge1&#45;label"><a xlink:href="javascript:window.parent.edit_relationship('/projects/231/relationships/2767/edit');" xlink:title="one">
<text text-anchor="middle" x="384" y="-225.3" font-family="Times,serif" font-size="14.00" fill="#000000">one</text>
</a>
</g>
</g>
<!-- 4332 -->
<g id="node3" class="node">
<title>4332</title>
<g id="a_node3"><a xlink:href="javascript:window.parent.edit_table('/projects/231/tables/4332/edit');" xlink:title="&lt;TABLE&gt;">
<polygon fill="#ececfc" stroke="transparent" points="423.5,-103.5 423.5,-137.5 774.5,-137.5 774.5,-103.5 423.5,-103.5"/>
<polygon fill="none" stroke="#000000" points="423.5,-103.5 423.5,-137.5 774.5,-137.5 774.5,-103.5 423.5,-103.5"/>
<text text-anchor="start" x="571.5" y="-124.3" font-family="Times,serif" font-weight="bold" font-size="14.00" fill="#000000">Orders</text>
<text text-anchor="start" x="426.5" y="-110.3" font-family="Times,serif" font-weight="bold" font-size="14.00" fill="#000000">Orders that have been made by customers </text>
<polygon fill="#01f800" stroke="transparent" points="423.5,-82.5 423.5,-103.5 520.5,-103.5 520.5,-82.5 423.5,-82.5"/>
<polygon fill="none" stroke="#000000" points="423.5,-82.5 423.5,-103.5 520.5,-103.5 520.5,-82.5 423.5,-82.5"/>
<text text-anchor="start" x="426.5" y="-89.3" font-family="Times,serif" font-size="14.00" fill="#000000">OrderID</text>
<polygon fill="#01f800" stroke="transparent" points="520.5,-82.5 520.5,-103.5 591.5,-103.5 591.5,-82.5 520.5,-82.5"/>
<polygon fill="none" stroke="#000000" points="520.5,-82.5 520.5,-103.5 591.5,-103.5 591.5,-82.5 520.5,-82.5"/>
<text text-anchor="start" x="523.5" y="-89.3" font-family="Times,serif" font-size="14.00" fill="#000000">int</text>
<polygon fill="#01f800" stroke="transparent" points="591.5,-82.5 591.5,-103.5 774.5,-103.5 774.5,-82.5 591.5,-82.5"/>
<polygon fill="none" stroke="#000000" points="591.5,-82.5 591.5,-103.5 774.5,-103.5 774.5,-82.5 591.5,-82.5"/>
<text text-anchor="start" x="596.5" y="-89.3" font-family="Times,serif" font-size="14.00" fill="#000000">[pk, increment, not null]</text>
<polygon fill="#01f800" stroke="transparent" points="423.5,-61.5 423.5,-82.5 520.5,-82.5 520.5,-61.5 423.5,-61.5"/>
<polygon fill="none" stroke="#000000" points="423.5,-61.5 423.5,-82.5 520.5,-82.5 520.5,-61.5 423.5,-61.5"/>
<text text-anchor="start" x="426.5" y="-68.3" font-family="Times,serif" font-size="14.00" fill="#000000">CustomerID</text>
<polygon fill="#01f800" stroke="transparent" points="520.5,-61.5 520.5,-82.5 591.5,-82.5 591.5,-61.5 520.5,-61.5"/>
<polygon fill="none" stroke="#000000" points="520.5,-61.5 520.5,-82.5 591.5,-82.5 591.5,-61.5 520.5,-61.5"/>
<text text-anchor="start" x="523.5" y="-68.3" font-family="Times,serif" font-size="14.00" fill="#000000">int</text>
<polygon fill="#01f800" stroke="transparent" points="591.5,-61.5 591.5,-82.5 774.5,-82.5 774.5,-61.5 591.5,-61.5"/>
<polygon fill="none" stroke="#000000" points="591.5,-61.5 591.5,-82.5 774.5,-82.5 774.5,-61.5 591.5,-61.5"/>
<text text-anchor="start" x="705.5" y="-68.3" font-family="Times,serif" font-size="14.00" fill="#000000">[not null]</text>
<polygon fill="#01f800" stroke="transparent" points="423.5,-40.5 423.5,-61.5 520.5,-61.5 520.5,-40.5 423.5,-40.5"/>
<polygon fill="none" stroke="#000000" points="423.5,-40.5 423.5,-61.5 520.5,-61.5 520.5,-40.5 423.5,-40.5"/>
<text text-anchor="start" x="426.5" y="-47.3" font-family="Times,serif" font-size="14.00" fill="#000000">Date</text>
<polygon fill="#01f800" stroke="transparent" points="520.5,-40.5 520.5,-61.5 591.5,-61.5 591.5,-40.5 520.5,-40.5"/>
<polygon fill="none" stroke="#000000" points="520.5,-40.5 520.5,-61.5 591.5,-61.5 591.5,-40.5 520.5,-40.5"/>
<text text-anchor="start" x="523.5" y="-47.3" font-family="Times,serif" font-size="14.00" fill="#000000">datetime</text>
<polygon fill="#01f800" stroke="transparent" points="591.5,-40.5 591.5,-61.5 774.5,-61.5 774.5,-40.5 591.5,-40.5"/>
<polygon fill="none" stroke="#000000" points="591.5,-40.5 591.5,-61.5 774.5,-61.5 774.5,-40.5 591.5,-40.5"/>
<text text-anchor="start" x="705.5" y="-47.3" font-family="Times,serif" font-size="14.00" fill="#000000">[not null]</text>
</a>
</g>
</g>
<!-- 4333&#45;&gt;4332 -->
<g id="edge2" class="edge">
<title>4333&#45;&gt;4332</title>
<g id="a_edge2"><a xlink:href="javascript:window.parent.edit_relationship('/projects/231/relationships/2766/edit');" xlink:title="one">
<path fill="none" stroke="#000000" d="M295.7361,-184.2034C334.5153,-172.0734 378.4303,-158.337 420.5443,-145.1639"/>
<polygon fill="#000000" stroke="#000000" points="421.8505,-148.4226 430.3496,-142.0968 419.7607,-141.7418 421.8505,-148.4226"/>
</a>
</g>
<g id="a_edge2&#45;label"><a xlink:href="javascript:window.parent.edit_relationship('/projects/231/relationships/2766/edit');" xlink:title="one">
<text text-anchor="middle" x="384" y="-162.3" font-family="Times,serif" font-size="14.00" fill="#000000">one</text>
</a>
</g>
</g>
<!-- 4331 -->
<g id="node4" class="node">
<title>4331</title>
<g id="a_node4"><a xlink:href="javascript:window.parent.edit_table('/projects/231/tables/4331/edit');" xlink:title="&lt;TABLE&gt;">
<polygon fill="#ececfc" stroke="transparent" points="8.5,-108.5 8.5,-142.5 345.5,-142.5 345.5,-108.5 8.5,-108.5"/>
<polygon fill="none" stroke="#000000" points="8.5,-108.5 8.5,-142.5 345.5,-142.5 345.5,-108.5 8.5,-108.5"/>
<text text-anchor="start" x="133.5" y="-129.3" font-family="Times,serif" font-weight="bold" font-size="14.00" fill="#000000">Customers</text>
<text text-anchor="start" x="92" y="-115.3" font-family="Times,serif" font-weight="bold" font-size="14.00" fill="#000000">holds customer data </text>
<polygon fill="#01f800" stroke="transparent" points="8.5,-87.5 8.5,-108.5 102.5,-108.5 102.5,-87.5 8.5,-87.5"/>
<polygon fill="none" stroke="#000000" points="8.5,-87.5 8.5,-108.5 102.5,-108.5 102.5,-87.5 8.5,-87.5"/>
<text text-anchor="start" x="11.5" y="-94.3" font-family="Times,serif" font-size="14.00" fill="#000000">CustomerID</text>
<polygon fill="#01f800" stroke="transparent" points="102.5,-87.5 102.5,-108.5 164.5,-108.5 164.5,-87.5 102.5,-87.5"/>
<polygon fill="none" stroke="#000000" points="102.5,-87.5 102.5,-108.5 164.5,-108.5 164.5,-87.5 102.5,-87.5"/>
<text text-anchor="start" x="105.5" y="-94.3" font-family="Times,serif" font-size="14.00" fill="#000000">int</text>
<polygon fill="#01f800" stroke="transparent" points="164.5,-87.5 164.5,-108.5 345.5,-108.5 345.5,-87.5 164.5,-87.5"/>
<polygon fill="none" stroke="#000000" points="164.5,-87.5 164.5,-108.5 345.5,-108.5 345.5,-87.5 164.5,-87.5"/>
<text text-anchor="start" x="167.5" y="-94.3" font-family="Times,serif" font-size="14.00" fill="#000000">[pk, increment, not null]</text>
<polygon fill="#01f800" stroke="transparent" points="8.5,-66.5 8.5,-87.5 102.5,-87.5 102.5,-66.5 8.5,-66.5"/>
<polygon fill="none" stroke="#000000" points="8.5,-66.5 8.5,-87.5 102.5,-87.5 102.5,-66.5 8.5,-66.5"/>
<text text-anchor="start" x="11.5" y="-73.3" font-family="Times,serif" font-size="14.00" fill="#000000">Name</text>
<polygon fill="#01f800" stroke="transparent" points="102.5,-66.5 102.5,-87.5 164.5,-87.5 164.5,-66.5 102.5,-66.5"/>
<polygon fill="none" stroke="#000000" points="102.5,-66.5 102.5,-87.5 164.5,-87.5 164.5,-66.5 102.5,-66.5"/>
<text text-anchor="start" x="105.5" y="-73.3" font-family="Times,serif" font-size="14.00" fill="#000000">varchar</text>
<polygon fill="#01f800" stroke="transparent" points="164.5,-66.5 164.5,-87.5 345.5,-87.5 345.5,-66.5 164.5,-66.5"/>
<polygon fill="none" stroke="#000000" points="164.5,-66.5 164.5,-87.5 345.5,-87.5 345.5,-66.5 164.5,-66.5"/>
<text text-anchor="start" x="276.5" y="-73.3" font-family="Times,serif" font-size="14.00" fill="#000000">[not null]</text>
<polygon fill="#01f800" stroke="transparent" points="8.5,-45.5 8.5,-66.5 102.5,-66.5 102.5,-45.5 8.5,-45.5"/>
<polygon fill="none" stroke="#000000" points="8.5,-45.5 8.5,-66.5 102.5,-66.5 102.5,-45.5 8.5,-45.5"/>
<text text-anchor="start" x="11.5" y="-52.3" font-family="Times,serif" font-size="14.00" fill="#000000">Address</text>
<polygon fill="#01f800" stroke="transparent" points="102.5,-45.5 102.5,-66.5 164.5,-66.5 164.5,-45.5 102.5,-45.5"/>
<polygon fill="none" stroke="#000000" points="102.5,-45.5 102.5,-66.5 164.5,-66.5 164.5,-45.5 102.5,-45.5"/>
<text text-anchor="start" x="105.5" y="-52.3" font-family="Times,serif" font-size="14.00" fill="#000000">varchar</text>
<polygon fill="#01f800" stroke="transparent" points="164.5,-45.5 164.5,-66.5 345.5,-66.5 345.5,-45.5 164.5,-45.5"/>
<polygon fill="none" stroke="#000000" points="164.5,-45.5 164.5,-66.5 345.5,-66.5 345.5,-45.5 164.5,-45.5"/>
<text text-anchor="start" x="276.5" y="-52.3" font-family="Times,serif" font-size="14.00" fill="#000000">[not null]</text>
<polygon fill="#01f800" stroke="transparent" points="8.5,-24.5 8.5,-45.5 102.5,-45.5 102.5,-24.5 8.5,-24.5"/>
<polygon fill="none" stroke="#000000" points="8.5,-24.5 8.5,-45.5 102.5,-45.5 102.5,-24.5 8.5,-24.5"/>
<text text-anchor="start" x="11.5" y="-31.3" font-family="Times,serif" font-size="14.00" fill="#000000">Postcode</text>
<polygon fill="#01f800" stroke="transparent" points="102.5,-24.5 102.5,-45.5 164.5,-45.5 164.5,-24.5 102.5,-24.5"/>
<polygon fill="none" stroke="#000000" points="102.5,-24.5 102.5,-45.5 164.5,-45.5 164.5,-24.5 102.5,-24.5"/>
<text text-anchor="start" x="105.5" y="-31.3" font-family="Times,serif" font-size="14.00" fill="#000000">varchar</text>
<polygon fill="#01f800" stroke="transparent" points="164.5,-24.5 164.5,-45.5 345.5,-45.5 345.5,-24.5 164.5,-24.5"/>
<polygon fill="none" stroke="#000000" points="164.5,-24.5 164.5,-45.5 345.5,-45.5 345.5,-24.5 164.5,-24.5"/>
<text text-anchor="start" x="276.5" y="-31.3" font-family="Times,serif" font-size="14.00" fill="#000000">[not null]</text>
<polygon fill="#01f800" stroke="transparent" points="8.5,-3.5 8.5,-24.5 102.5,-24.5 102.5,-3.5 8.5,-3.5"/>
<polygon fill="none" stroke="#000000" points="8.5,-3.5 8.5,-24.5 102.5,-24.5 102.5,-3.5 8.5,-3.5"/>
<text text-anchor="start" x="11.5" y="-10.3" font-family="Times,serif" font-size="14.00" fill="#000000">Email</text>
<polygon fill="#01f800" stroke="transparent" points="102.5,-3.5 102.5,-24.5 164.5,-24.5 164.5,-3.5 102.5,-3.5"/>
<polygon fill="none" stroke="#000000" points="102.5,-3.5 102.5,-24.5 164.5,-24.5 164.5,-3.5 102.5,-3.5"/>
<text text-anchor="start" x="105.5" y="-10.3" font-family="Times,serif" font-size="14.00" fill="#000000">varchar</text>
<polygon fill="#01f800" stroke="transparent" points="164.5,-3.5 164.5,-24.5 345.5,-24.5 345.5,-3.5 164.5,-3.5"/>
<polygon fill="none" stroke="#000000" points="164.5,-3.5 164.5,-24.5 345.5,-24.5 345.5,-3.5 164.5,-3.5"/>
<text text-anchor="start" x="276.5" y="-10.3" font-family="Times,serif" font-size="14.00" fill="#000000">[not null]</text>
</a>
</g>
</g>
<!-- 4331&#45;&gt;4332 -->
<g id="edge3" class="edge">
<title>4331&#45;&gt;4332</title>
<g id="a_edge3"><a xlink:href="javascript:window.parent.edit_relationship('/projects/231/relationships/2711/edit');" xlink:title="one">
<path fill="none" stroke="#000000" d="M353.0209,-80.1927C370.1075,-80.8406 387.5042,-81.5002 404.7462,-82.1539"/>
<polygon fill="#000000" stroke="#000000" points="404.7513,-85.6565 414.8767,-82.538 405.0165,-78.6615 404.7513,-85.6565"/>
</a>
</g>
<g id="a_edge3&#45;label"><a xlink:href="javascript:window.parent.edit_relationship('/projects/231/relationships/2711/edit');" xlink:title="one">
<text text-anchor="middle" x="384" y="-85.3" font-family="Times,serif" font-size="14.00" fill="#000000">one</text>
</a>
</g>
</g>
</g>
</svg>
